<?xml version="1.0" encoding="utf-8"?>

<!DOCTYPE svg PUBLIC "-//W3C//DTD SVG 1.1//EN" "http://www.w3.org/Graphics/SVG/1.1/DTD/svg11.dtd">
<svg version="1.1" id="Layer_1" xmlns="http://www.w3.org/2000/svg" xmlns:xlink="http://www.w3.org/1999/xlink" x="0px" y="0px"
	 viewBox="0 0 1548.557 1704.695" enable-background="new 0 0 1548.557 1704.695" xml:space="preserve">
<path d="M1465.295,482.114c113.409,359.581-59.689,569.499-152.972,727.477c-71.017,121.332-53.094,308.459-16.696,442.757H631.07
	c-7.914-28.482-34.333-111.704-53.236-137.019c-32.076-43.122-69.546-31.567-91.654-29.129
	c-50.519,4.506-100.917,10.271-151.281,16.291c-138.461,16.865-167.807-78.965-142.434-217.072
	c-69.673-2.509-42.214-54.771-30.903-62.01c1.535-1.025,3.232-2.123,3.681-4.046c-0.588-0.288-1.186-0.543-1.79-0.765
	c-54.994-11.656-18.413-58.647-16.579-63.646c6.883-18.139-37.186-27.154-75.779-38.574
	c-72.923-22.831,45.541-136.998,84.482-253.124c61.377-181.725-50.799-304.839,90.657-538.514
	c77.249-127.309,168.813-165.197,188.475-176.757C816.205-82.602,1356.94,133.312,1465.295,482.114z"/>
</svg>
